<mxfile host="65bd71144e">
    <diagram id="05PreEs8ji1y7hlkiAob" name="Page-1">
        <mxGraphModel dx="1979" dy="790" grid="1" gridSize="10" guides="1" tooltips="1" connect="1" arrows="1" fold="1" page="1" pageScale="1" pageWidth="827" pageHeight="1169" math="0" shadow="0">
            <root>
                <mxCell id="0"/>
                <mxCell id="1" parent="0"/>
                <mxCell id="4" value="" style="edgeStyle=none;html=1;fontSize=15;" parent="1" source="2" target="3" edge="1">
                    <mxGeometry relative="1" as="geometry"/>
                </mxCell>
                <mxCell id="2" value="inicio" style="ellipse;whiteSpace=wrap;html=1;fontSize=15;fillColor=#a20025;fontColor=#ffffff;strokeColor=#6F0000;" parent="1" vertex="1">
                    <mxGeometry x="354" y="10" width="120" height="80" as="geometry"/>
                </mxCell>
                <mxCell id="6" value="" style="edgeStyle=none;html=1;fontSize=15;" parent="1" source="3" target="5" edge="1">
                    <mxGeometry relative="1" as="geometry"/>
                </mxCell>
                <mxCell id="3" value="n" style="shape=parallelogram;perimeter=parallelogramPerimeter;whiteSpace=wrap;html=1;fixedSize=1;fontSize=15;fillColor=#e3c800;fontColor=#000000;strokeColor=#B09500;" parent="1" vertex="1">
                    <mxGeometry x="354" y="180" width="120" height="60" as="geometry"/>
                </mxCell>
                <mxCell id="10" value="" style="edgeStyle=none;html=1;fontSize=15;" parent="1" source="5" target="9" edge="1">
                    <mxGeometry relative="1" as="geometry"/>
                </mxCell>
                <mxCell id="5" value="c1=0, c2=0, c3=0, c4=0, c5=0, c6=0" style="whiteSpace=wrap;html=1;fontSize=15;fillColor=#f0a30a;fontColor=#000000;strokeColor=#BD7000;" parent="1" vertex="1">
                    <mxGeometry x="354" y="320" width="120" height="60" as="geometry"/>
                </mxCell>
                <mxCell id="12" value="" style="edgeStyle=none;html=1;fontSize=15;" parent="1" source="9" target="11" edge="1">
                    <mxGeometry relative="1" as="geometry"/>
                </mxCell>
                <mxCell id="72" value="" style="edgeStyle=none;html=1;" edge="1" parent="1" source="9" target="71">
                    <mxGeometry relative="1" as="geometry"/>
                </mxCell>
                <mxCell id="9" value="i in range(n)" style="shape=hexagon;perimeter=hexagonPerimeter2;whiteSpace=wrap;html=1;fixedSize=1;fontSize=15;fillColor=#647687;fontColor=#ffffff;strokeColor=#314354;" parent="1" vertex="1">
                    <mxGeometry x="354" y="450" width="120" height="80" as="geometry"/>
                </mxCell>
                <mxCell id="14" value="" style="edgeStyle=none;html=1;fontSize=15;" parent="1" source="11" target="13" edge="1">
                    <mxGeometry relative="1" as="geometry"/>
                </mxCell>
                <mxCell id="11" value="L=randon.randint(1,6)" style="whiteSpace=wrap;html=1;fontSize=15;fillColor=#f0a30a;fontColor=#000000;strokeColor=#BD7000;" parent="1" vertex="1">
                    <mxGeometry x="320" y="620" width="190" height="60" as="geometry"/>
                </mxCell>
                <mxCell id="16" value="" style="edgeStyle=none;html=1;fontSize=15;startArrow=none;exitX=1;exitY=0.5;exitDx=0;exitDy=0;" parent="1" source="13" target="15" edge="1">
                    <mxGeometry relative="1" as="geometry">
                        <mxPoint x="500" y="757.8571428571429" as="sourcePoint"/>
                    </mxGeometry>
                </mxCell>
                <mxCell id="18" value="" style="edgeStyle=none;html=1;fontSize=15;entryX=0.5;entryY=0;entryDx=0;entryDy=0;" parent="1" source="13" target="17" edge="1">
                    <mxGeometry relative="1" as="geometry">
                        <Array as="points">
                            <mxPoint x="290" y="790"/>
                        </Array>
                    </mxGeometry>
                </mxCell>
                <mxCell id="13" value="L==1" style="rhombus;whiteSpace=wrap;html=1;fontSize=15;fillColor=#647687;fontColor=#ffffff;strokeColor=#314354;" parent="1" vertex="1">
                    <mxGeometry x="375" y="750" width="80" height="80" as="geometry"/>
                </mxCell>
                <mxCell id="37" style="edgeStyle=none;html=1;fontSize=15;entryX=0.5;entryY=0;entryDx=0;entryDy=0;" parent="1" source="15" target="9" edge="1">
                    <mxGeometry relative="1" as="geometry">
                        <mxPoint x="-110" y="388" as="targetPoint"/>
                        <Array as="points">
                            <mxPoint x="575" y="1400"/>
                            <mxPoint x="-120" y="1400"/>
                            <mxPoint x="-120" y="450"/>
                        </Array>
                    </mxGeometry>
                </mxCell>
                <mxCell id="15" value="c1=c1+1" style="whiteSpace=wrap;html=1;fontSize=15;fillColor=#f0a30a;fontColor=#000000;strokeColor=#BD7000;" parent="1" vertex="1">
                    <mxGeometry x="515" y="760" width="120" height="60" as="geometry"/>
                </mxCell>
                <mxCell id="20" value="" style="edgeStyle=none;html=1;fontSize=15;" parent="1" source="17" target="19" edge="1">
                    <mxGeometry relative="1" as="geometry"/>
                </mxCell>
                <mxCell id="33" style="edgeStyle=none;html=1;entryX=0.5;entryY=0;entryDx=0;entryDy=0;fontSize=15;exitX=0;exitY=0.5;exitDx=0;exitDy=0;" parent="1" source="17" target="22" edge="1">
                    <mxGeometry relative="1" as="geometry">
                        <Array as="points">
                            <mxPoint x="220" y="900"/>
                        </Array>
                    </mxGeometry>
                </mxCell>
                <mxCell id="17" value="L==2" style="rhombus;whiteSpace=wrap;html=1;fontSize=15;fillColor=#647687;fontColor=#ffffff;strokeColor=#314354;" parent="1" vertex="1">
                    <mxGeometry x="250" y="860" width="80" height="80" as="geometry"/>
                </mxCell>
                <mxCell id="38" style="edgeStyle=none;html=1;fontSize=15;" parent="1" source="19" edge="1">
                    <mxGeometry relative="1" as="geometry">
                        <mxPoint x="450" y="1400" as="targetPoint"/>
                    </mxGeometry>
                </mxCell>
                <mxCell id="19" value="c2=c2+1" style="whiteSpace=wrap;html=1;fontSize=15;fillColor=#f0a30a;fontColor=#000000;strokeColor=#BD7000;" parent="1" vertex="1">
                    <mxGeometry x="390" y="870" width="120" height="60" as="geometry"/>
                </mxCell>
                <mxCell id="21" value="" style="edgeStyle=none;html=1;fontSize=15;" parent="1" source="22" target="23" edge="1">
                    <mxGeometry relative="1" as="geometry"/>
                </mxCell>
                <mxCell id="34" style="edgeStyle=none;html=1;entryX=0.5;entryY=0;entryDx=0;entryDy=0;fontSize=15;" parent="1" source="22" target="25" edge="1">
                    <mxGeometry relative="1" as="geometry">
                        <Array as="points">
                            <mxPoint x="134" y="1010"/>
                        </Array>
                    </mxGeometry>
                </mxCell>
                <mxCell id="22" value="L==3" style="rhombus;whiteSpace=wrap;html=1;fontSize=15;fillColor=#647687;fontColor=#ffffff;strokeColor=#314354;" parent="1" vertex="1">
                    <mxGeometry x="180" y="970" width="80" height="80" as="geometry"/>
                </mxCell>
                <mxCell id="39" style="edgeStyle=none;html=1;fontSize=15;" parent="1" source="23" edge="1">
                    <mxGeometry relative="1" as="geometry">
                        <mxPoint x="380" y="1400" as="targetPoint"/>
                    </mxGeometry>
                </mxCell>
                <mxCell id="23" value="c3=c3+1" style="whiteSpace=wrap;html=1;fontSize=15;fillColor=#f0a30a;fontColor=#000000;strokeColor=#BD7000;" parent="1" vertex="1">
                    <mxGeometry x="320" y="980" width="120" height="60" as="geometry"/>
                </mxCell>
                <mxCell id="24" value="" style="edgeStyle=none;html=1;fontSize=15;" parent="1" source="25" target="26" edge="1">
                    <mxGeometry relative="1" as="geometry"/>
                </mxCell>
                <mxCell id="35" style="edgeStyle=none;html=1;entryX=0.5;entryY=0;entryDx=0;entryDy=0;fontSize=15;" parent="1" source="25" target="28" edge="1">
                    <mxGeometry relative="1" as="geometry">
                        <Array as="points">
                            <mxPoint x="50" y="1110"/>
                        </Array>
                    </mxGeometry>
                </mxCell>
                <mxCell id="25" value="L==4" style="rhombus;whiteSpace=wrap;html=1;fontSize=15;fillColor=#647687;fontColor=#ffffff;strokeColor=#314354;" parent="1" vertex="1">
                    <mxGeometry x="94" y="1070" width="80" height="80" as="geometry"/>
                </mxCell>
                <mxCell id="40" style="edgeStyle=none;html=1;fontSize=15;" parent="1" source="26" edge="1">
                    <mxGeometry relative="1" as="geometry">
                        <mxPoint x="294" y="1400" as="targetPoint"/>
                    </mxGeometry>
                </mxCell>
                <mxCell id="26" value="c4=c4+1" style="whiteSpace=wrap;html=1;fontSize=15;fillColor=#f0a30a;fontColor=#000000;strokeColor=#BD7000;" parent="1" vertex="1">
                    <mxGeometry x="234" y="1080" width="120" height="60" as="geometry"/>
                </mxCell>
                <mxCell id="27" value="" style="edgeStyle=none;html=1;fontSize=15;" parent="1" source="28" target="29" edge="1">
                    <mxGeometry relative="1" as="geometry"/>
                </mxCell>
                <mxCell id="36" style="edgeStyle=none;html=1;entryX=0.5;entryY=0;entryDx=0;entryDy=0;fontSize=15;" parent="1" source="28" target="31" edge="1">
                    <mxGeometry relative="1" as="geometry">
                        <Array as="points">
                            <mxPoint x="-20" y="1220"/>
                        </Array>
                    </mxGeometry>
                </mxCell>
                <mxCell id="28" value="L==5" style="rhombus;whiteSpace=wrap;html=1;fontSize=15;fillColor=#647687;fontColor=#ffffff;strokeColor=#314354;" parent="1" vertex="1">
                    <mxGeometry x="10" y="1180" width="80" height="80" as="geometry"/>
                </mxCell>
                <mxCell id="41" style="edgeStyle=none;html=1;fontSize=15;" parent="1" source="29" edge="1">
                    <mxGeometry relative="1" as="geometry">
                        <mxPoint x="210" y="1400" as="targetPoint"/>
                    </mxGeometry>
                </mxCell>
                <mxCell id="29" value="c5=c5+1" style="whiteSpace=wrap;html=1;fontSize=15;fillColor=#f0a30a;fontColor=#000000;strokeColor=#BD7000;" parent="1" vertex="1">
                    <mxGeometry x="150" y="1190" width="120" height="60" as="geometry"/>
                </mxCell>
                <mxCell id="30" value="" style="edgeStyle=none;html=1;fontSize=15;" parent="1" source="31" target="32" edge="1">
                    <mxGeometry relative="1" as="geometry"/>
                </mxCell>
                <mxCell id="46" style="edgeStyle=none;html=1;fontSize=15;" parent="1" source="31" edge="1">
                    <mxGeometry relative="1" as="geometry">
                        <mxPoint x="-120" y="1310" as="targetPoint"/>
                    </mxGeometry>
                </mxCell>
                <mxCell id="31" value="L==6" style="rhombus;whiteSpace=wrap;html=1;fontSize=15;fillColor=#647687;fontColor=#ffffff;strokeColor=#314354;" parent="1" vertex="1">
                    <mxGeometry x="-60" y="1270" width="80" height="80" as="geometry"/>
                </mxCell>
                <mxCell id="43" style="edgeStyle=none;html=1;fontSize=15;" parent="1" source="32" edge="1">
                    <mxGeometry relative="1" as="geometry">
                        <mxPoint x="140" y="1400" as="targetPoint"/>
                    </mxGeometry>
                </mxCell>
                <mxCell id="32" value="c6=c6+1" style="whiteSpace=wrap;html=1;fontSize=15;fillColor=#f0a30a;fontColor=#000000;strokeColor=#BD7000;" parent="1" vertex="1">
                    <mxGeometry x="80" y="1280" width="120" height="60" as="geometry"/>
                </mxCell>
                <mxCell id="47" value="V" style="text;html=1;strokeColor=none;fillColor=none;align=center;verticalAlign=middle;whiteSpace=wrap;rounded=0;" vertex="1" parent="1">
                    <mxGeometry x="414" y="550" width="60" height="30" as="geometry"/>
                </mxCell>
                <mxCell id="51" value="V" style="text;html=1;strokeColor=none;fillColor=none;align=center;verticalAlign=middle;whiteSpace=wrap;rounded=0;" vertex="1" parent="1">
                    <mxGeometry x="330" y="870" width="60" height="30" as="geometry"/>
                </mxCell>
                <mxCell id="52" value="V" style="text;html=1;strokeColor=none;fillColor=none;align=center;verticalAlign=middle;whiteSpace=wrap;rounded=0;" vertex="1" parent="1">
                    <mxGeometry x="260" y="980" width="60" height="30" as="geometry"/>
                </mxCell>
                <mxCell id="53" value="V" style="text;html=1;strokeColor=none;fillColor=none;align=center;verticalAlign=middle;whiteSpace=wrap;rounded=0;" vertex="1" parent="1">
                    <mxGeometry x="174" y="1080" width="60" height="30" as="geometry"/>
                </mxCell>
                <mxCell id="55" value="V" style="text;html=1;strokeColor=none;fillColor=none;align=center;verticalAlign=middle;whiteSpace=wrap;rounded=0;" vertex="1" parent="1">
                    <mxGeometry x="80" y="1190" width="60" height="30" as="geometry"/>
                </mxCell>
                <mxCell id="56" value="V" style="text;html=1;strokeColor=none;fillColor=none;align=center;verticalAlign=middle;whiteSpace=wrap;rounded=0;" vertex="1" parent="1">
                    <mxGeometry x="20" y="1280" width="60" height="30" as="geometry"/>
                </mxCell>
                <mxCell id="58" value="V" style="text;html=1;strokeColor=none;fillColor=none;align=center;verticalAlign=middle;whiteSpace=wrap;rounded=0;" vertex="1" parent="1">
                    <mxGeometry x="450" y="760" width="60" height="30" as="geometry"/>
                </mxCell>
                <mxCell id="59" value="F" style="text;html=1;strokeColor=none;fillColor=none;align=center;verticalAlign=middle;whiteSpace=wrap;rounded=0;" vertex="1" parent="1">
                    <mxGeometry x="310" y="760" width="60" height="30" as="geometry"/>
                </mxCell>
                <mxCell id="60" value="F" style="text;html=1;strokeColor=none;fillColor=none;align=center;verticalAlign=middle;whiteSpace=wrap;rounded=0;" vertex="1" parent="1">
                    <mxGeometry x="200" y="870" width="60" height="30" as="geometry"/>
                </mxCell>
                <mxCell id="64" value="F" style="text;html=1;strokeColor=none;fillColor=none;align=center;verticalAlign=middle;whiteSpace=wrap;rounded=0;" vertex="1" parent="1">
                    <mxGeometry x="130" y="970" width="60" height="30" as="geometry"/>
                </mxCell>
                <mxCell id="66" value="F" style="text;html=1;strokeColor=none;fillColor=none;align=center;verticalAlign=middle;whiteSpace=wrap;rounded=0;" vertex="1" parent="1">
                    <mxGeometry x="40" y="1070" width="60" height="30" as="geometry"/>
                </mxCell>
                <mxCell id="67" value="F" style="text;html=1;strokeColor=none;fillColor=none;align=center;verticalAlign=middle;whiteSpace=wrap;rounded=0;" vertex="1" parent="1">
                    <mxGeometry x="-40" y="1190" width="60" height="30" as="geometry"/>
                </mxCell>
                <mxCell id="68" value="F" style="text;html=1;strokeColor=none;fillColor=none;align=center;verticalAlign=middle;whiteSpace=wrap;rounded=0;" vertex="1" parent="1">
                    <mxGeometry x="-120" y="1280" width="60" height="30" as="geometry"/>
                </mxCell>
                <mxCell id="69" value="F" style="text;html=1;strokeColor=none;fillColor=none;align=center;verticalAlign=middle;whiteSpace=wrap;rounded=0;" vertex="1" parent="1">
                    <mxGeometry x="480" y="460" width="60" height="30" as="geometry"/>
                </mxCell>
                <mxCell id="74" value="" style="edgeStyle=none;html=1;" edge="1" parent="1" source="71" target="73">
                    <mxGeometry relative="1" as="geometry">
                        <Array as="points">
                            <mxPoint x="700" y="1480"/>
                            <mxPoint x="414" y="1480"/>
                        </Array>
                    </mxGeometry>
                </mxCell>
                <mxCell id="71" value="c1, c2, c3, c4, c5, c6" style="shape=document;whiteSpace=wrap;html=1;boundedLbl=1;fontSize=15;fillColor=#008a00;fontColor=#ffffff;strokeColor=#005700;" vertex="1" parent="1">
                    <mxGeometry x="640" y="450" width="120" height="80" as="geometry"/>
                </mxCell>
                <mxCell id="73" value="fin" style="ellipse;whiteSpace=wrap;html=1;fontSize=15;fillColor=#1ba1e2;fontColor=#ffffff;strokeColor=#006EAF;" vertex="1" parent="1">
                    <mxGeometry x="354" y="1580" width="120" height="60" as="geometry"/>
                </mxCell>
            </root>
        </mxGraphModel>
    </diagram>
</mxfile>